<?xml version="1.0" encoding="UTF-8" standalone="no"?>
<svg
   xmlns:dc="http://purl.org/dc/elements/1.1/"
   xmlns:cc="http://creativecommons.org/ns#"
   xmlns:rdf="http://www.w3.org/1999/02/22-rdf-syntax-ns#"
   xmlns:svg="http://www.w3.org/2000/svg"
   xmlns="http://www.w3.org/2000/svg"
   id="svg32"
   version="1.1"
   style="overflow:visible"
   viewBox="-250 -250 500 500"
   height="2000px"
   width="2000px">
  <metadata
     id="metadata38">
    <rdf:RDF>
      <cc:Work
         rdf:about="">
        <dc:format>image/svg+xml</dc:format>
        <dc:type
           rdf:resource="http://purl.org/dc/dcmitype/StillImage" />
      </cc:Work>
    </rdf:RDF>
  </metadata>
  <defs
     id="defs36" />
  <rect
     id="rect2"
     fill-opacity="0"
     fill="rgb(0,0,0)"
     height="500"
     width="500"
     y="-250"
     x="-250" />
  <svg
     id="svg30"
     version="1.1"
     y="-250"
     x="-250"
     viewBox="-250 -250 500 500"
     height="500"
     width="500"
     style="overflow:visible">
    <g
       style="fill:#ffffff;stroke-linejoin:round"
       id="g28">
      <path
         style="fill:#000000;fill-opacity:1;stroke:#000000;stroke-width:0;stroke-linecap:butt;stroke-linejoin:round;stroke-opacity:0"
         id="path4"
         d="m -20.66,-112.762 c 19.094,-20.6346 63.4589,-32.6395 81.9804,-29.4375 34.0556,5.8877 -18.6082,11.4059 -21.3993,57.8796 z" />
      <path
         style="fill:#000000;fill-opacity:1;stroke:#000000;stroke-width:0;stroke-linecap:butt;stroke-linejoin:round;stroke-opacity:0"
         id="path6"
         d="m -124.312,-40.611 c 0,0 8.94358,53.3838 44.2189,69.7068 17.2362,7.97608 -7.5253,-17.0386 2.061189,-45.9876" />
      <path
         style="fill:#000000;fill-opacity:1;stroke:none;stroke-linecap:butt;stroke-linejoin:round"
         id="path8"
         d="m -112.146,-69.901001 -83.2813,42.3115 c -6.31246,11.6873 7.13892,15.7179 25.468,15.1902 25.0681,-0.72176 60.5573,-10.2645 116.324,2.29773 l 0.006,-0.002 3.04901,-14.4795 -13.3824,-5.78506 z" />
      <path
         style="fill:#000000;fill-opacity:1;stroke:none;stroke-linecap:butt;stroke-linejoin:round"
         id="path10"
         d="m -14.729001,-23.671 -10.2423,9.39328 16.0673,10.1461 0.008,0.006 -0.004,-0.008 c 52.263,11.772 84.8611,41.5299 103.396,64.3382 h 0.01 l -17.3429,-101.241 z" />
      <path
         style="fill:#000000;fill-opacity:1;stroke:none;stroke-linecap:butt;stroke-linejoin:round"
         id="path12"
         d="m -61.436001,-123.388 c -45.673499,0.47666 -98.948699,14.7761 -108.010999,59.2852 l 10.921,8.01974 -12.2686,5.61536 c -12.345,5.46775 -25.4829,11.3307 -24.6322,22.8784 28.5023,4.9843 50.7968,-5.07626 75.5683,-9.25681 4.88185,-0.88681 10.017,-1.33341 15.1734,-1.40191 15.469099,-0.20555 31.129899,2.98794 40.722799,7.88013 2.63879,6.00429 5.73212,13.067 10.3334,20.2646 l -0.006,0.002 c 0.005,0.001 0.0102,0.003 0.0155,0.004 9.68025,15.7877 31.6394,34.0723 53.8427,35.7088 17.0752,1.25853 -3.44713,-16.424801 -9.11954,-29.7366 -0.003,-0.002 -0.005,-0.004 -0.008,-0.006 -3.74866,-7.13307 -5.78154,-13.9016 -5.82502,-19.5394 62.6186,13.4734 105.706,58.7704 109.235,83.8757 h -0.01 c 7.910301,9.73404 13.275501,18.2111 16.488101,23.4698 11.723,19.1904 -2.01923,46.4642 9.48215,57.4102 8.58584,8.17074 15.4441,-16.2732 24.6555,-22.1144 9.21054,-5.84074 53.6138,11.8704 51.8338,1.8343 -4.01511,-22.6383 -46.9831,-41.9614 -57.5851,-53.726 -16.5664,-31.2395 -35.2382,-103.337 -79.050901,-146.829 -28.6813,-28.4718 -67.6813,-40.169 -101.063,-42.9083 -6.57821,-0.53981 -13.5422,-0.80369 -20.692,-0.72907 z" />
      <path
         style="fill:#000000;fill-opacity:1;stroke:none;stroke-linecap:butt;stroke-linejoin:round"
         id="path14"
         d="m 28.576,-89.13 c -3.78758,0.80316 -5.01594,6.03468 -1.48159,8.33055 26.8613,17.9954 40.1525,38.838 52.8057,60.6953 3.05238,5.34256 11.0587,0.71099 7.94513,-4.59616 -12.7918,-22.0924 -27.1997,-44.6638 -55.6354,-63.7224 -1.30359,-0.78272 -2.2939,-0.86658 -3.63384,-0.70729 z" />
      <path
         style="fill:#000000;fill-opacity:1;stroke:none;stroke-linecap:butt;stroke-linejoin:round"
         id="path16"
         d="m -169.4475,-64.103002 c -0.86819,4.26398 -1.33668,8.80215 -1.34767,13.6351 0,0 17.4145,3.61341 39.2258,-3.1218 10.0217,-3.09465 8.2706,-7.54568 -1.10915,-5.88295 -12.6305,2.23899 -27.7713,-1.65901 -36.769,-4.63035 z" />
      <path
         style="fill:#000000;fill-opacity:1;stroke:none;stroke-linecap:butt;stroke-linejoin:round"
         id="path18"
         d="m -98.737,-62.852001 c -1e-5,3.56252 -2.88924,6.45051 -6.45329,6.45051 -3.56405,0 -6.45328,-2.88799 -6.45329,-6.45051 1e-5,-3.56252 2.88924,-6.45051 6.45329,-6.45051 3.56405,0 6.45328,2.88799 6.45329,6.45051 z" />
      <path
         style="fill:none;stroke:#000000;stroke-width:0;stroke-linecap:round;stroke-linejoin:round;stroke-opacity:0"
         id="path20"
         d="m -195.4281,-27.589 c 28.5023,4.98429 50.7975,-5.07755 75.569,-9.25811" />
      <path
         style="fill:none;stroke:#000000;stroke-width:0;stroke-linecap:round;stroke-linejoin:round;stroke-opacity:0"
         id="path22"
         d="m -53.63,-10.103001 c -4.60128,-7.1976 -7.69362,-14.2616 -10.3324,-20.2658" />
      <path
         style="fill:none;stroke:#000000;stroke-width:0;stroke-linecap:round;stroke-linejoin:round;stroke-opacity:0"
         id="path24"
         d="m -14.729001,-23.671 c 0.0435,5.63781 2.07573,12.4058 5.8244,19.5388" />
      <path
         style="fill:none;stroke:#000000;stroke-width:0;stroke-linecap:butt;stroke-linejoin:round;stroke-opacity:0"
         id="path26"
         d="m -40.744,-122.66 c -52.6256,-4.31844 -129.906,9.01224 -130.05,72.1909 -12.345,5.46774 -25.4842,11.3317 -24.6336,22.8794 -6.31246,11.6872 7.13919,15.7182 25.4683,15.1905 25.0705,-0.72183 60.5636,-10.2676 116.338998,2.30002 9.68025,15.7877 31.6407,34.0737 53.844,35.7102 17.0786,1.25878 -3.45642,-16.432401 -9.12413,-29.745 74.5676,16.796 109.143002,70.228 119.883002,87.8086 11.723,19.1904 -2.01775,46.4639 9.48363,57.4099 8.58584,8.17074 15.443,-16.2736 24.6544,-22.1148 9.21054,-5.84074 53.6135,11.8711 51.8335,1.83499 -4.01512,-22.6383 -46.9816,-41.9626 -57.5837,-53.7272 -16.5664,-31.2395 -35.2398,-103.336 -79.052402,-146.828 -28.6813,-28.4718 -67.6806,-40.1697 -101.063,-42.909 z" />
    </g>
  </svg>
</svg>
